<?xml version="1.0" encoding="UTF-8"?>
<svg id="logo" xmlns="http://www.w3.org/2000/svg" xmlns:xlink="http://www.w3.org/1999/xlink" viewBox="0 0 512 512">
  <defs>
    <style>
      .cls-1 {
        fill: none;
      }

      .cls-2 {
        fill: url(#couleur_logo_dégradé_2);
      }

      .cls-3 {
        fill: url(#Dégradé_sans_nom_13);
      }

      .cls-4 {
        fill: url(#Dégradé_sans_nom_17);
      }

      .cls-5 {
        fill: url(#Dégradé_sans_nom_16);
      }

      .cls-6 {
        fill: url(#Dégradé_sans_nom_14);
      }

      .cls-7 {
        fill: url(#Dégradé_sans_nom_15);
      }

      .cls-8 {
        fill: url(#Dégradé_sans_nom_4);
      }

      .cls-9 {
        fill: url(#couleur_logo_dégradé_2-5);
      }

      .cls-10 {
        fill: url(#couleur_logo_dégradé_2-4);
      }

      .cls-11 {
        fill: url(#couleur_logo_dégradé_2-6);
      }

      .cls-12 {
        fill: url(#couleur_logo_dégradé_2-2);
      }

      .cls-13 {
        fill: url(#couleur_logo_dégradé_2-3);
      }
    </style>
    <linearGradient id="couleur_logo_dégradé_2" data-name="couleur logo dégradé 2" x1="50" y1="357.18" x2="117.86" y2="357.18" gradientUnits="userSpaceOnUse">
      <stop offset="0" stop-color="#f59d26"/>
      <stop offset=".26" stop-color="#f49725"/>
      <stop offset=".6" stop-color="#eb841d"/>
      <stop offset=".99" stop-color="#dd6a14"/>
      <stop offset="1" stop-color="#dd6915"/>
    </linearGradient>
    <linearGradient id="couleur_logo_dégradé_2-2" data-name="couleur logo dégradé 2" x1="133.82" y1="367.06" x2="194.94" y2="367.06" xlink:href="#couleur_logo_dégradé_2"/>
    <linearGradient id="couleur_logo_dégradé_2-3" data-name="couleur logo dégradé 2" x1="209.72" y1="377.28" x2="267.53" y2="377.28" xlink:href="#couleur_logo_dégradé_2"/>
    <linearGradient id="couleur_logo_dégradé_2-4" data-name="couleur logo dégradé 2" x1="281.71" y1="358.6" x2="322.97" y2="358.6" xlink:href="#couleur_logo_dégradé_2"/>
    <linearGradient id="couleur_logo_dégradé_2-5" data-name="couleur logo dégradé 2" x1="330.66" y1="367.06" x2="389.06" y2="367.06" xlink:href="#couleur_logo_dégradé_2"/>
    <linearGradient id="couleur_logo_dégradé_2-6" data-name="couleur logo dégradé 2" x1="400.88" y1="367.06" x2="462" y2="367.06" xlink:href="#couleur_logo_dégradé_2"/>
    <linearGradient id="Dégradé_sans_nom_17" data-name="Dégradé sans nom 17" x1="388.89" y1="-433.01" x2="388.89" y2="-494.87" gradientTransform="translate(0 -228.51) scale(1 -1)" gradientUnits="userSpaceOnUse">
      <stop offset="0" stop-color="#e67a1f"/>
      <stop offset=".2" stop-color="#e88020"/>
      <stop offset="1" stop-color="#f29d2d"/>
    </linearGradient>
    <linearGradient id="Dégradé_sans_nom_16" data-name="Dégradé sans nom 16" x1="256" y1="-318.17" x2="256" y2="-424.49" gradientTransform="translate(0 -228.51) scale(1 -1)" gradientUnits="userSpaceOnUse">
      <stop offset="0" stop-color="#f39c2b"/>
      <stop offset=".45" stop-color="#f29a29"/>
      <stop offset=".68" stop-color="#ef9026"/>
      <stop offset=".86" stop-color="#e88222"/>
      <stop offset="1" stop-color="#e2731a"/>
    </linearGradient>
    <linearGradient id="Dégradé_sans_nom_15" data-name="Dégradé sans nom 15" x1="196.86" y1="-481.99" x2="213.34" y2="-471.82" gradientTransform="translate(0 -228.51) scale(1 -1)" gradientUnits="userSpaceOnUse">
      <stop offset="0" stop-color="#e5771f"/>
      <stop offset=".54" stop-color="#e88826"/>
      <stop offset="1" stop-color="#ea942d"/>
    </linearGradient>
    <linearGradient id="Dégradé_sans_nom_14" data-name="Dégradé sans nom 14" x1="277.62" y1="-480.97" x2="301" y2="-470.63" gradientTransform="translate(0 -228.51) scale(1 -1)" gradientUnits="userSpaceOnUse">
      <stop offset="0" stop-color="#e2731d"/>
      <stop offset=".3" stop-color="#e88123"/>
      <stop offset=".68" stop-color="#ec912c"/>
      <stop offset="1" stop-color="#ec952f"/>
    </linearGradient>
    <linearGradient id="Dégradé_sans_nom_13" data-name="Dégradé sans nom 13" x1="256.26" y1="-436.57" x2="256.26" y2="-390.49" gradientTransform="translate(0 -228.51) scale(1 -1)" gradientUnits="userSpaceOnUse">
      <stop offset="0" stop-color="#f39c2b"/>
      <stop offset=".35" stop-color="#e98521"/>
      <stop offset=".72" stop-color="#e47619"/>
      <stop offset="1" stop-color="#df6f19"/>
    </linearGradient>
    <radialGradient id="Dégradé_sans_nom_4" data-name="Dégradé sans nom 4" cx="2385.14" cy="-908.09" fx="2385.14" fy="-908.09" r="87.88" gradientTransform="translate(-1315.03 -345.08) scale(.66 -.66)" gradientUnits="userSpaceOnUse">
      <stop offset="0" stop-color="#f29d2d"/>
      <stop offset=".37" stop-color="#ef982b"/>
      <stop offset=".73" stop-color="#ec8c27"/>
      <stop offset="1" stop-color="#e77f1e"/>
    </radialGradient>
  </defs>
  <g>
    <g>
      <path class="cls-2" d="m99.42,316.22h18.44v81.93h-18.44v-34.76h-30.98v34.76h-18.44v-81.93h18.44v31.33h30.98v-31.33Z"/>
      <path class="cls-12" d="m194.94,366.94c0,4.89-.71,9.36-2.13,13.42-1.42,4.06-3.47,7.53-6.15,10.4-2.68,2.88-5.89,5.1-9.63,6.68-3.74,1.57-7.94,2.36-12.59,2.36s-8.73-.79-12.47-2.36c-3.74-1.58-6.96-3.8-9.63-6.68-2.68-2.88-4.77-6.34-6.27-10.4-1.5-4.06-2.25-8.53-2.25-13.42s.77-9.34,2.31-13.36c1.54-4.02,3.67-7.45,6.38-10.29,2.72-2.84,5.95-5.04,9.69-6.62,3.74-1.58,7.82-2.36,12.24-2.36s8.61.79,12.35,2.36c3.74,1.58,6.96,3.78,9.64,6.62,2.68,2.84,4.77,6.27,6.27,10.29,1.5,4.02,2.25,8.47,2.25,13.36Zm-17.97,0c0-5.44-1.08-9.71-3.25-12.83-2.17-3.11-5.26-4.67-9.28-4.67s-7.13,1.56-9.34,4.67c-2.21,3.11-3.31,7.39-3.31,12.83s1.1,9.75,3.31,12.95c2.2,3.19,5.32,4.79,9.34,4.79s7.11-1.6,9.28-4.79c2.17-3.19,3.25-7.51,3.25-12.95Z"/>
      <path class="cls-13" d="m267.53,367.06c0,4.81-.59,9.18-1.77,13.12-1.18,3.94-2.92,7.33-5.2,10.17-2.29,2.84-5.12,5.04-8.51,6.62-3.39,1.57-7.29,2.36-11.7,2.36-2.44,0-4.73-.24-6.86-.71-2.13-.47-4.18-1.14-6.15-2.01v23.41h-17.61v-81.93c1.57-.47,3.39-.93,5.44-1.36,2.05-.43,4.2-.81,6.44-1.12,2.25-.31,4.53-.57,6.86-.77,2.32-.2,4.55-.3,6.68-.3,5.12,0,9.69.77,13.71,2.31,4.02,1.54,7.41,3.71,10.17,6.5,2.76,2.8,4.87,6.21,6.32,10.23,1.46,4.02,2.19,8.51,2.19,13.48Zm-17.97.47c0-5.44-1.22-9.79-3.66-13.06-2.44-3.27-6.07-4.9-10.88-4.9-1.58,0-3.03.06-4.37.18s-2.44.26-3.31.41v31.8c1.1.71,2.54,1.3,4.31,1.77,1.77.47,3.57.71,5.38.71,8.35,0,12.53-5.63,12.53-16.91Z"/>
      <path class="cls-10" d="m281.71,320.48l17.62-2.84v18.32h21.16v14.66h-21.16v21.87c0,3.71.65,6.66,1.95,8.87,1.3,2.21,3.92,3.31,7.86,3.31,1.89,0,3.84-.18,5.85-.53s3.84-.85,5.5-1.48l2.48,13.71c-2.13.87-4.49,1.62-7.09,2.25-2.6.63-5.79.95-9.58.95-4.81,0-8.79-.65-11.94-1.95-3.15-1.3-5.68-3.11-7.57-5.44-1.89-2.32-3.21-5.14-3.96-8.45-.75-3.31-1.12-6.98-1.12-10.99v-52.25Z"/>
      <path class="cls-9" d="m330.66,367.53c0-5.51.85-10.34,2.54-14.48,1.69-4.14,3.92-7.58,6.68-10.34,2.76-2.76,5.93-4.85,9.52-6.27,3.58-1.42,7.27-2.13,11.05-2.13,8.83,0,15.8,2.7,20.93,8.1,5.12,5.4,7.68,13.34,7.68,23.82,0,1.03-.04,2.15-.12,3.37-.08,1.22-.16,2.31-.24,3.25h-39.96c.39,3.63,2.09,6.5,5.08,8.63,2.99,2.13,7.01,3.19,12.06,3.19,3.23,0,6.4-.3,9.52-.89,3.11-.59,5.66-1.32,7.63-2.19l2.36,14.31c-.95.47-2.21.95-3.78,1.42s-3.33.89-5.26,1.24c-1.93.36-4,.65-6.21.89-2.21.24-4.41.36-6.62.36-5.6,0-10.46-.83-14.6-2.48-4.14-1.65-7.57-3.92-10.28-6.8-2.72-2.88-4.73-6.28-6.03-10.23-1.3-3.94-1.95-8.2-1.95-12.77Zm41.38-6.74c-.08-1.5-.34-2.96-.77-4.37-.43-1.42-1.11-2.68-2.01-3.78-.91-1.1-2.05-2.01-3.43-2.72-1.38-.71-3.09-1.06-5.14-1.06s-3.66.34-5.08,1.01c-1.42.67-2.6,1.56-3.55,2.66-.95,1.1-1.68,2.38-2.19,3.84-.51,1.46-.89,2.94-1.12,4.43h23.29Z"/>
      <path class="cls-11" d="m462,366.94c0,4.89-.71,9.36-2.13,13.42-1.42,4.06-3.47,7.53-6.15,10.4-2.68,2.88-5.89,5.1-9.63,6.68-3.74,1.57-7.94,2.36-12.59,2.36s-8.73-.79-12.47-2.36c-3.74-1.58-6.96-3.8-9.63-6.68-2.68-2.88-4.77-6.34-6.27-10.4-1.5-4.06-2.25-8.53-2.25-13.42s.77-9.34,2.31-13.36c1.54-4.02,3.67-7.45,6.38-10.29,2.72-2.84,5.95-5.04,9.69-6.62,3.74-1.58,7.82-2.36,12.24-2.36s8.61.79,12.35,2.36c3.74,1.58,6.96,3.78,9.64,6.62,2.68,2.84,4.77,6.27,6.27,10.29,1.5,4.02,2.25,8.47,2.25,13.36Zm-17.97,0c0-5.44-1.08-9.71-3.25-12.83-2.17-3.11-5.26-4.67-9.28-4.67s-7.13,1.56-9.34,4.67c-2.21,3.11-3.31,7.39-3.31,12.83s1.1,9.75,3.31,12.95c2.2,3.19,5.32,4.79,9.34,4.79s7.11-1.6,9.28-4.79c2.17-3.19,3.25-7.51,3.25-12.95Z"/>
    </g>
    <g>
      <path class="cls-4" d="m394.49,187.39c0,8.08,3.67,27.64-3.95,30.63,6.98,4.89,7.79,11.48,4.38,18.89-.42.84-.25,2.33-1.54,1.05-.97-.98-1.14-1.01-1.5-1.64-.17,5.11-4.36,8.28-6.65,12.33-4.27-9.13-7.87-23.93,2.09-30.77-8.52-4.4-4.04-15.27-4.04-23.56"/>
      <path class="cls-5" d="m351.62,216.84l52.35-34.08c2.78-1.78,2.68-5.88-.19-7.52l-145.26-82.69c-1.34-.76-2.97-.77-4.31,0l-145.98,82.68c-2.88,1.63-2.99,5.76-.18,7.53l52.4,33.15c1.36.86,95.55-21.63,95.55-21.63l95.63,22.56Z"/>
      <path class="cls-7" d="m197.69,262.15c-6.24-11.99,2.42-26.8,14.16-29.95,3.06-.82,6.02,2.61,4.06,3.26-12.1,4.01-17.68,15.52-13.35,26.96.53,1.41-3.98,1.45-4.87-.27Z"/>
      <path class="cls-6" d="m279.34,262.15c-6.24-11.99,2.42-26.8,14.16-29.95,3.06-.82,6.02,2.61,4.06,3.26-12.1,4.01-17.68,15.52-13.35,26.96.54,1.41-3.97,1.45-4.87-.27Z"/>
      <path class="cls-3" d="m160.74,230.01l-.22-33.52c0-.79.36-1.52,1-1.99,6.79-4.97,47.12-32.94,94.74-32.94s87.94,27.97,94.74,32.94c.64.47,1,1.2,1,1.99l-.22,33.08c-.01,2.09-2.44,3.2-4.03,1.85-9.37-7.93-36.3-25.41-91.63-25.41-52.35,0-81.49,18.25-91.41,25.91-1.64,1.25-3.95.12-3.96-1.92Z"/>
      <path class="cls-8" d="m295.93,217.61c-8.89,0-16.16,8.36-26.88,8.36-7.69,0-7.42-5.31-13.4-5.31-5.04,0-7.38,5.57-12.46,5.33-10.22-.46-19.49-8.98-28.44-8.53-16.66.82-32.71,15.72-32.71,38.57,0,17.52,11.96,35.34,32.71,35.34s27.15-12.97,30.4-20.04c2.25-4.9,2.14-10.63,10.5-10.63s8.53,5.38,10.49,10.4c2.48,6.38,10.73,20.28,28.73,20.28,17.07,0,35.02-11.36,35.02-36.97,0-23.48-19.14-36.81-33.96-36.81Zm-81.08,64.73c-34.52,0-29.76-55.26.08-55.26,35.57,0,32.59,55.26-.08,55.26Zm81.75,0c-36,0-32.44-55.26,0-55.26s33.92,55.26,0,55.26Z"/>
    </g>
  </g>
  <rect class="cls-1" width="512" height="512"/>
</svg>