<?xml version="1.0" encoding="UTF-8"?>
<svg xmlns="http://www.w3.org/2000/svg" xmlns:xlink="http://www.w3.org/1999/xlink" width="700px" height="991px" viewBox="0 0 700 990" version="1.1">
<defs>
<linearGradient id="linear0" gradientUnits="userSpaceOnUse" x1="254.9052" y1="454.7252" x2="241.5667" y2="483.1075" gradientTransform="matrix(1.176471,0,0,1.175772,0,0)">
<stop offset="0" style="stop-color:rgb(95.686275%,57.254902%,14.117647%);stop-opacity:1;"/>
<stop offset="0.9754" style="stop-color:rgb(91.372549%,49.019608%,12.941176%);stop-opacity:1;"/>
<stop offset="1" style="stop-color:rgb(90.980392%,49.019608%,12.941176%);stop-opacity:1;"/>
</linearGradient>
<linearGradient id="linear1" gradientUnits="userSpaceOnUse" x1="331.88" y1="454.7252" x2="318.5415" y2="483.1075" gradientTransform="matrix(1.176471,0,0,1.175772,0,0)">
<stop offset="0" style="stop-color:rgb(95.686275%,57.254902%,14.117647%);stop-opacity:1;"/>
<stop offset="0.9754" style="stop-color:rgb(91.372549%,49.019608%,12.941176%);stop-opacity:1;"/>
<stop offset="1" style="stop-color:rgb(90.980392%,49.019608%,12.941176%);stop-opacity:1;"/>
</linearGradient>
<linearGradient id="linear2" gradientUnits="userSpaceOnUse" x1="422.2784" y1="468.123" x2="422.2784" y2="418.3718" gradientTransform="matrix(1.176471,0,0,1.175772,0,0)">
<stop offset="0" style="stop-color:rgb(96.470588%,58.823529%,14.509804%);stop-opacity:1;"/>
<stop offset="0.3734" style="stop-color:rgb(95.294118%,56.470588%,13.72549%);stop-opacity:1;"/>
<stop offset="0.8343" style="stop-color:rgb(91.372549%,49.803922%,12.156863%);stop-opacity:1;"/>
<stop offset="1" style="stop-color:rgb(89.411765%,46.666667%,10.980392%);stop-opacity:1;"/>
</linearGradient>
<radialGradient id="radial0" gradientUnits="userSpaceOnUse" cx="297.64" cy="477.1151" fx="297.64" fy="477.1151" r="81.3037" gradientTransform="matrix(1.176471,0,0,1.175772,0,0)">
<stop offset="0" style="stop-color:rgb(96.470588%,58.823529%,14.509804%);stop-opacity:1;"/>
<stop offset="0.321" style="stop-color:rgb(95.686275%,57.254902%,14.117647%);stop-opacity:1;"/>
<stop offset="0.6462" style="stop-color:rgb(92.941176%,51.764706%,12.941176%);stop-opacity:1;"/>
<stop offset="0.9723" style="stop-color:rgb(88.235294%,43.137255%,10.588235%);stop-opacity:1;"/>
<stop offset="1" style="stop-color:rgb(87.843137%,42.352941%,10.196078%);stop-opacity:1;"/>
</radialGradient>
<clipPath id="clip1">
  <path d="M 181.71875 381.867188 L 350.164062 381.867188 L 350.164062 538.386719 L 181.71875 538.386719 Z M 181.71875 381.867188 "/>
</clipPath>
<linearGradient id="linear3" gradientUnits="userSpaceOnUse" x1="-1139.6654" y1="231.516" x2="-1139.6654" y2="338.3702" gradientTransform="matrix(1.176471,0,0,1.175772,1691.276941,108.010881)">
<stop offset="0" style="stop-color:rgb(96.078431%,61.568627%,14.509804%);stop-opacity:1;"/>
<stop offset="0.3288" style="stop-color:rgb(95.686275%,60%,14.117647%);stop-opacity:1;"/>
<stop offset="0.5829" style="stop-color:rgb(93.72549%,56.078431%,12.941176%);stop-opacity:1;"/>
<stop offset="0.8113" style="stop-color:rgb(90.588235%,49.411765%,10.588235%);stop-opacity:1;"/>
<stop offset="1" style="stop-color:rgb(87.058824%,41.176471%,8.235294%);stop-opacity:1;"/>
</linearGradient>
<clipPath id="clip2">
  <path d="M 350.164062 381.867188 L 518.613281 381.867188 L 518.613281 538.386719 L 350.164062 538.386719 Z M 350.164062 381.867188 "/>
</clipPath>
<linearGradient id="linear4" gradientUnits="userSpaceOnUse" x1="-1139.6654" y1="231.516" x2="-1139.6654" y2="338.3702" gradientTransform="matrix(-1.176471,0,0,1.175772,-990.948706,108.010529)">
<stop offset="0" style="stop-color:rgb(96.078431%,61.568627%,14.509804%);stop-opacity:1;"/>
<stop offset="0.3288" style="stop-color:rgb(95.686275%,60%,14.117647%);stop-opacity:1;"/>
<stop offset="0.5829" style="stop-color:rgb(93.72549%,56.078431%,12.941176%);stop-opacity:1;"/>
<stop offset="0.8113" style="stop-color:rgb(90.588235%,49.411765%,10.588235%);stop-opacity:1;"/>
<stop offset="1" style="stop-color:rgb(87.058824%,41.176471%,8.235294%);stop-opacity:1;"/>
</linearGradient>
<clipPath id="clip3">
  <path d="M 244.011719 458.269531 L 350.035156 458.269531 L 350.035156 538.761719 L 244.011719 538.761719 Z M 244.011719 458.269531 "/>
</clipPath>
<linearGradient id="linear5" gradientUnits="userSpaceOnUse" x1="-1139.8416" y1="350.8116" x2="-1139.8416" y2="295.0792" gradientTransform="matrix(1.188118,0,0,1.187412,1704.062118,106.170445)">
<stop offset="0" style="stop-color:rgb(97.647059%,58.431373%,11.372549%);stop-opacity:1;"/>
<stop offset="1" style="stop-color:rgb(87.058824%,41.176471%,9.411765%);stop-opacity:1;"/>
</linearGradient>
<clipPath id="clip4">
  <path d="M 350.035156 458.269531 L 456.058594 458.269531 L 456.058594 538.761719 L 350.035156 538.761719 Z M 350.035156 458.269531 "/>
</clipPath>
<linearGradient id="linear6" gradientUnits="userSpaceOnUse" x1="-1139.8416" y1="350.8116" x2="-1139.8416" y2="295.0792" gradientTransform="matrix(-1.188118,0,0,1.187412,-1003.995765,106.170093)">
<stop offset="0" style="stop-color:rgb(97.647059%,58.431373%,11.372549%);stop-opacity:1;"/>
<stop offset="1" style="stop-color:rgb(87.058824%,41.176471%,9.411765%);stop-opacity:1;"/>
</linearGradient>
</defs>
<g id="surface1">
<path style=" stroke:none;fill-rule:nonzero;fill:url(#linear0);" d="M 285.175781 568.507812 C 278.269531 555.269531 287.859375 538.914062 300.859375 535.433594 C 304.246094 534.53125 307.53125 538.316406 305.351562 539.03125 C 291.953125 543.464844 285.777344 556.175781 290.566406 568.804688 C 291.164062 570.34375 286.164062 570.390625 285.175781 568.507812 Z M 285.175781 568.507812 "/>
<path style=" stroke:none;fill-rule:nonzero;fill:url(#linear1);" d="M 375.742188 568.507812 C 368.835938 555.269531 378.421875 538.914062 391.421875 535.433594 C 394.8125 534.53125 398.09375 538.316406 395.917969 539.03125 C 382.519531 543.464844 376.339844 556.175781 381.128906 568.804688 C 381.730469 570.34375 376.730469 570.390625 375.742188 568.507812 Z M 375.742188 568.507812 "/>
<path style=" stroke:none;fill-rule:nonzero;fill:url(#linear2);" d="M 490.707031 493.34375 C 494.789062 491.085938 498.800781 488.675781 502.578125 486.039062 C 502.578125 494.964844 507.046875 516.503906 498.613281 519.808594 C 506.339844 525.207031 507.234375 532.484375 503.457031 540.667969 C 502.988281 541.597656 503.175781 543.242188 501.753906 541.832031 C 500.683594 540.75 500.492188 540.714844 500.09375 540.019531 C 499.90625 545.664062 495.269531 549.167969 492.730469 553.636719 C 488 543.558594 484.011719 527.214844 495.046875 519.65625 C 485.613281 514.800781 490.578125 502.796875 490.578125 493.636719 C 490.578125 493.332031 490.707031 493.34375 490.707031 493.34375 Z M 490.707031 493.34375 "/>
<path style=" stroke:none;fill-rule:nonzero;fill:url(#radial0);" d="M 418.613281 529.261719 C 427 536.808594 431.328125 546.464844 432.105469 558.269531 C 432.941406 570.800781 429.128906 581.40625 421.398438 590.144531 C 415.457031 596.867188 408.011719 600.667969 399.554688 601.738281 C 386.90625 603.335938 376.46875 598.386719 367.765625 588.226562 C 364.09375 583.945312 361.695312 578.925781 359.976562 573.363281 C 358.800781 569.53125 355.625 568.664062 352.578125 568.109375 C 350.210938 567.675781 347.742188 567.839844 345.398438 568.710938 C 342.847656 569.660156 341 571.238281 340 574.351562 C 335.777344 587.484375 327.730469 596.175781 315.671875 600.207031 C 301.800781 604.839844 289.671875 601.007812 279.234375 590.425781 C 272.613281 583.699219 269.046875 574.929688 268.234375 564.78125 C 266.765625 546.25 275.835938 530.8125 289.257812 523.949219 C 301.871094 517.492188 314.152344 518.761719 325.777344 527.203125 C 327.398438 528.378906 328.976562 529.003906 330.882812 528.851562 C 332.375 528.722656 333.894531 528.734375 335.386719 528.851562 C 338.363281 529.085938 340.835938 528.519531 343.316406 526.097656 C 347.257812 522.242188 353.847656 522.761719 357.800781 526.78125 C 359.351562 528.367188 360.917969 529.109375 362.941406 528.839844 C 363.269531 528.792969 363.613281 528.804688 363.941406 528.839844 C 369.046875 529.367188 373.421875 527.863281 378.035156 524.933594 C 387.671875 518.84375 398.058594 518.328125 408.554688 522.808594 C 412.210938 524.335938 415.542969 526.300781 418.613281 529.261719 Z M 279.082031 571.449219 C 283.894531 587.652344 301.789062 596.375 315.648438 589.496094 C 329.304688 582.710938 335.988281 566.238281 331.375 551.425781 C 324.625 529.730469 300.988281 523.195312 285.964844 538.820312 C 278.128906 546.96875 274.929688 560.335938 279.082031 571.449219 Z M 367.917969 556.421875 C 367.351562 559.46875 367.410156 562.488281 367.871094 565.582031 C 370.375 582.3125 384.09375 594.410156 399.457031 591.542969 C 418.128906 588.0625 428.941406 566.074219 419.707031 546.617188 C 412.433594 531.308594 395.082031 525.429688 381.457031 534.433594 C 374.09375 539.304688 369.648438 546.558594 367.917969 556.421875 Z M 367.917969 556.421875 "/>
<g clip-path="url(#clip1)" clip-rule="nonzero">
<path style=" stroke:none;fill-rule:nonzero;fill:url(#linear3);" d="M 356.140625 505.230469 C 356.105469 505.230469 356.058594 505.21875 356.023438 505.21875 C 313.683594 505.230469 278.753906 514.53125 246.09375 537.75 C 245.871094 537.914062 245.175781 538.386719 245.175781 538.386719 L 245.175781 497.363281 C 267.824219 464.933594 311.941406 456.8125 353.941406 456.65625 C 354.566406 456.65625 355.035156 457.246094 354.894531 457.855469 L 353.316406 464.734375 C 353.210938 465.171875 352.824219 465.488281 352.375 465.488281 C 309.941406 465.59375 268.269531 474.800781 245.257812 507.5 C 245.140625 507.664062 245.082031 507.863281 245.082031 508.0625 L 245.058594 516.597656 L 245.058594 518.363281 C 215.578125 499.210938 184.035156 478.714844 183.046875 478.070312 C 181.433594 477.234375 181.269531 475 182.730469 473.929688 C 182.730469 473.929688 322.90625 396.28125 347.421875 382.65625 C 349.328125 381.597656 351.648438 381.609375 353.542969 382.667969 C 377.507812 396.082031 495 460.761719 518.292969 473.847656 C 519.742188 474.929688 519.554688 477.140625 517.953125 477.964844 C 517.953125 477.964844 478.917969 503.148438 454.835938 518.679688 L 457.1875 517.210938 Z M 356.140625 505.230469 "/>
</g>
<g clip-path="url(#clip2)" clip-rule="nonzero">
<path style=" stroke:none;fill-rule:nonzero;fill:url(#linear4);" d="M 344.1875 505.230469 C 344.222656 505.230469 344.269531 505.21875 344.304688 505.21875 C 386.648438 505.230469 421.578125 514.53125 454.234375 537.75 C 454.457031 537.914062 455.152344 538.386719 455.152344 538.386719 L 455.152344 497.363281 C 432.507812 464.933594 388.386719 456.8125 346.386719 456.65625 C 345.765625 456.65625 345.292969 457.246094 345.433594 457.855469 L 347.011719 464.734375 C 347.117188 465.171875 347.507812 465.488281 347.953125 465.488281 C 390.386719 465.59375 432.058594 474.800781 455.070312 507.5 C 455.1875 507.664062 455.246094 507.863281 455.246094 508.0625 L 455.269531 516.597656 L 455.269531 518.363281 C 484.753906 499.210938 516.292969 478.714844 517.28125 478.070312 C 518.894531 477.234375 519.058594 475 517.601562 473.929688 C 517.601562 473.929688 377.421875 396.269531 352.90625 382.65625 C 351 381.597656 348.683594 381.609375 346.789062 382.667969 C 322.824219 396.082031 205.328125 460.761719 182.035156 473.847656 C 180.589844 474.929688 180.777344 477.140625 182.375 477.964844 C 182.375 477.964844 221.410156 503.148438 245.492188 518.679688 L 243.140625 517.210938 Z M 344.1875 505.230469 "/>
</g>
<g clip-path="url(#clip3)" clip-rule="nonzero">
<path style=" stroke:none;fill-rule:nonzero;fill:url(#linear5);" d="M 356.011719 507.308594 C 314.292969 507.308594 283.152344 510.625 247.398438 538.433594 C 246.625 539.03125 244.1875 539.019531 244.210938 536.210938 C 244.210938 524.898438 244.058594 510.203125 244.011719 501.007812 C 244.011719 500.125 244.105469 499.257812 244.339844 498.410156 C 244.445312 498.023438 244.660156 497.667969 244.929688 497.363281 C 264.28125 476.105469 313.175781 458.257812 355.082031 458.257812 "/>
</g>
<g clip-path="url(#clip4)" clip-rule="nonzero">
<path style=" stroke:none;fill-rule:nonzero;fill:url(#linear6);" d="M 344.058594 507.308594 C 385.777344 507.308594 416.917969 510.625 452.671875 538.433594 C 453.445312 539.03125 455.882812 539.019531 455.859375 536.210938 C 455.859375 524.898438 456.011719 510.203125 456.058594 501.007812 C 456.058594 500.125 455.964844 499.257812 455.730469 498.410156 C 455.625 498.023438 455.410156 497.667969 455.140625 497.363281 C 435.789062 476.105469 386.894531 458.257812 344.988281 458.257812 "/>
</g>
</g>
</svg>
