<?xml version="1.0" encoding="utf-8"?>
<!-- Generator: Adobe Adobe Illustrator 24.2.0, SVG Export Plug-In . SVG Version: 6.00 Build 0)  -->
<svg version="1.1" xmlns="http://www.w3.org/2000/svg" xmlns:xlink="http://www.w3.org/1999/xlink" x="0px" y="0px"
	 width="595.28px" height="841.89px" viewBox="147 270 300 300" style="enable-background:new 0 0 595.28 841.89;"
	 xml:space="preserve">
<style type="text/css">
	.st0{fill:none;stroke:#000000;stroke-miterlimit:10;}
	.st1{clip-path:url(#SVGID_2_);fill:url(#SVGID_3_);}
	.st2{clip-path:url(#SVGID_5_);fill:url(#SVGID_6_);}
	.st3{clip-path:url(#SVGID_8_);fill:url(#SVGID_9_);}
	.st4{clip-path:url(#SVGID_11_);fill:url(#SVGID_12_);}
	.st5{clip-path:url(#SVGID_14_);fill:url(#SVGID_15_);}
	.st6{clip-path:url(#SVGID_17_);fill:url(#SVGID_18_);}
	.st7{stroke:#000000;stroke-miterlimit:10;}
	.st8{clip-path:url(#SVGID_20_);fill:url(#SVGID_21_);}
	.st9{clip-path:url(#SVGID_23_);fill:url(#SVGID_24_);}
	.st10{fill:url(#SVGID_25_);}
	.st11{fill:url(#SVGID_26_);}
	.st12{fill:url(#SVGID_27_);}
	.st13{fill:url(#SVGID_28_);}
	.st14{fill:url(#SVGID_29_);}
	.st15{fill:url(#SVGID_30_);}
	.st16{clip-path:url(#SVGID_32_);fill:url(#SVGID_33_);}
	.st17{clip-path:url(#SVGID_35_);fill:url(#SVGID_36_);}
	.st18{fill:url(#SVGID_37_);}
	.st19{clip-path:url(#SVGID_39_);fill:url(#SVGID_40_);}
	.st20{clip-path:url(#SVGID_42_);fill:url(#SVGID_43_);}
	.st21{fill:url(#SVGID_44_);}
	.st22{fill:url(#SVGID_45_);}
	.st23{fill:url(#SVGID_46_);}
	.st24{fill:url(#SVGID_47_);}
	.st25{clip-path:url(#SVGID_49_);fill:url(#SVGID_50_);}
	.st26{clip-path:url(#SVGID_52_);fill:url(#SVGID_53_);}
	.st27{fill:url(#SVGID_54_);}
	.st28{clip-path:url(#SVGID_56_);fill:url(#SVGID_57_);}
	.st29{clip-path:url(#SVGID_59_);fill:url(#SVGID_60_);}
	.st30{fill:url(#SVGID_61_);}
</style>
<g id="Calque_1">
</g>
<g id="Calque_5">
</g>
<g id="Calque_4">
</g>
<g id="Calque_2">
</g>
<g id="Calque_3">
</g>
<g id="Calque_6">
</g>
<g id="Calque_7">
</g>
<g id="Calque_8">
	<rect x="420.32" y="790.95" width="0.39" height="0.39"/>
	<g>
		<linearGradient id="SVGID_2_" gradientUnits="userSpaceOnUse" x1="418.7365" y1="431.9828" x2="418.7365" y2="490.076">
			<stop  offset="0" style="stop-color:#E57920"/>
			<stop  offset="0.205" style="stop-color:#E78122"/>
			<stop  offset="1" style="stop-color:#F19C2E"/>
		</linearGradient>
		<path style="fill:url(#SVGID_2_);" d="M424,415.91c0,7.59,3.45,25.96-3.72,28.77c6.57,4.59,7.33,10.78,4.12,17.74
			c-0.4,0.79-0.24,2.19-1.45,0.99c-0.91-0.92-1.07-0.95-1.41-1.54c-0.16,4.8-4.1,7.78-6.26,11.58c-4.02-8.57-7.41-22.47,1.97-28.9
			c-8.02-4.13-3.8-14.34-3.8-22.13"/>
		<linearGradient id="SVGID_3_" gradientUnits="userSpaceOnUse" x1="293.64" y1="324.1248" x2="293.64" y2="423.9811">
			<stop  offset="0" style="stop-color:#F29C2B"/>
			<stop  offset="0.4545" style="stop-color:#F1992A"/>
			<stop  offset="0.6834" style="stop-color:#EE9127"/>
			<stop  offset="0.8613" style="stop-color:#E98422"/>
			<stop  offset="1" style="stop-color:#E3731D"/>
		</linearGradient>
		<path style="fill:url(#SVGID_3_);" d="M383.65,443.57l49.28-32.01c2.62-1.67,2.52-5.52-0.18-7.06l-136.74-77.66
			c-1.26-0.71-2.8-0.72-4.06,0l-137.42,77.65c-2.71,1.53-2.81,5.41-0.17,7.07l49.33,31.13c1.28,0.81,89.94-20.31,89.94-20.31
			L383.65,443.57z"/>
		<linearGradient id="SVGID_5_" gradientUnits="userSpaceOnUse" x1="237.9803" y1="477.9885" x2="253.4716" y2="468.4288">
			<stop  offset="0" style="stop-color:#E47620"/>
			<stop  offset="0.5412" style="stop-color:#E98928"/>
			<stop  offset="1" style="stop-color:#EC952D"/>
		</linearGradient>
		<path style="fill:url(#SVGID_5_);" d="M238.75,486.12c-5.87-11.26,2.28-25.17,13.33-28.13c2.88-0.77,5.67,2.45,3.82,3.06
			c-11.39,3.77-16.64,14.58-12.57,25.32C243.83,487.69,239.58,487.73,238.75,486.12z"/>
		<linearGradient id="SVGID_6_" gradientUnits="userSpaceOnUse" x1="314.0003" y1="477.0296" x2="335.9836" y2="467.3047">
			<stop  offset="0" style="stop-color:#E3731F"/>
			<stop  offset="0.3015" style="stop-color:#E88326"/>
			<stop  offset="0.6758" style="stop-color:#EB912C"/>
			<stop  offset="1" style="stop-color:#ED962E"/>
		</linearGradient>
		<path style="fill:url(#SVGID_6_);" d="M315.61,486.12c-5.87-11.26,2.28-25.17,13.33-28.13c2.88-0.77,5.67,2.45,3.82,3.06
			c-11.39,3.77-16.64,14.58-12.57,25.32C320.7,487.69,316.45,487.73,315.61,486.12z"/>
		<g>
		</g>
		<linearGradient id="SVGID_8_" gradientUnits="userSpaceOnUse" x1="293.8696" y1="435.3254" x2="293.8696" y2="392.0424">
			<stop  offset="0" style="stop-color:#F29C2A"/>
			<stop  offset="0.3454" style="stop-color:#EA8621"/>
			<stop  offset="0.7159" style="stop-color:#E3751C"/>
			<stop  offset="1" style="stop-color:#E16F1A"/>
		</linearGradient>
		<path style="fill:url(#SVGID_8_);" d="M203.97,455.94l-0.21-31.48c0-0.74,0.34-1.43,0.94-1.87c6.39-4.67,44.36-30.94,89.18-30.94
			c44.81,0,82.78,26.27,89.18,30.94c0.6,0.44,0.94,1.13,0.94,1.87l-0.21,31.07c-0.01,1.96-2.3,3.01-3.79,1.74
			c-8.82-7.45-34.17-23.86-86.25-23.86c-49.28,0-76.71,17.14-86.05,24.33C206.16,458.91,203.98,457.85,203.97,455.94z"/>
		<g>
		</g>
		<g>
			<g>
				<radialGradient id="SVGID_9_" cx="293.606" cy="478.8545" r="54.4854" gradientUnits="userSpaceOnUse">
					<stop  offset="0" style="stop-color:#F19C2E"/>
					<stop  offset="0.3697" style="stop-color:#EF982C"/>
					<stop  offset="0.7275" style="stop-color:#EB8C26"/>
					<stop  offset="1" style="stop-color:#E67E20"/>
				</radialGradient>
				<path style="fill:url(#SVGID_9_);" d="M331.22,444.29c-8.37,0-15.21,7.85-25.3,7.85c-7.24,0-6.98-4.99-12.61-4.99
					c-4.74,0-6.95,5.23-11.73,5.01c-9.62-0.43-18.35-8.43-26.77-8.01c-15.68,0.77-30.79,14.76-30.79,36.22
					c0,16.45,11.26,33.19,30.79,33.19c19.52,0,25.56-12.18,28.62-18.82c2.12-4.6,2.01-9.98,9.88-9.98c7.62,0,8.03,5.05,9.87,9.77
					c2.33,5.99,10.1,19.05,27.04,19.05c16.07,0,32.97-10.67,32.97-34.72C363.19,456.81,345.17,444.29,331.22,444.29z M254.9,505.08
					c-32.49,0-28.01-51.9,0.08-51.9C288.46,453.18,285.66,505.08,254.9,505.08z M331.85,505.08c-33.89,0-30.54-51.9,0-51.9
					C361.55,453.18,363.78,505.08,331.85,505.08z"/>
			</g>
		</g>
	</g>
</g>
</svg>
