<?xml version="1.0" encoding="utf-8"?>
<!-- Generator: Adobe Adobe Illustrator 24.2.0, SVG Export Plug-In . SVG Version: 6.00 Build 0)  -->
<svg version="1.1" xmlns="http://www.w3.org/2000/svg" xmlns:xlink="http://www.w3.org/1999/xlink" x="0px" y="0px" width="309.54565" height="202.05362" viewBox="142.8672 311.4993 309.54565 202.05362" style="enable-background:new 0 0 595.28 841.89;" xml:space="preserve">
<style type="text/css">
	.st0{fill:none;stroke:#000000;stroke-miterlimit:10;}
	.st1{clip-path:url(#SVGID_10_);fill:none;stroke:#000000;stroke-miterlimit:10;}
	.st2{clip-path:url(#SVGID_12_);fill:none;stroke:#000000;stroke-miterlimit:10;}
	.st3{clip-path:url(#SVGID_14_);fill:none;stroke:#000000;stroke-miterlimit:10;}
	.st4{clip-path:url(#SVGID_16_);fill:none;stroke:#000000;stroke-miterlimit:10;}
	.st5{fill:none;stroke:#EE851E;stroke-linejoin:round;stroke-miterlimit:10;}
	.st6{clip-path:url(#SVGID_26_);fill:none;stroke:#EE851E;stroke-linejoin:round;stroke-miterlimit:10;}
	.st7{clip-path:url(#SVGID_28_);fill:none;stroke:#EE851E;stroke-linejoin:round;stroke-miterlimit:10;}
	.st8{fill:none;stroke:#79C8DC;stroke-miterlimit:10;}
	.st9{fill:#7CCFE3;stroke:#79C8DC;stroke-miterlimit:10;}
	.st10{clip-path:url(#SVGID_30_);fill:none;stroke:#EE851E;stroke-linejoin:round;stroke-miterlimit:10;}
	.st11{clip-path:url(#SVGID_32_);fill:none;stroke:#EE851E;stroke-linejoin:round;stroke-miterlimit:10;}
	.st12{clip-path:url(#SVGID_34_);fill:none;stroke:#EE851E;stroke-linejoin:round;stroke-miterlimit:10;}
	.st13{clip-path:url(#SVGID_36_);fill:none;stroke:#EE851E;stroke-linejoin:round;stroke-miterlimit:10;}
	.st14{fill:#FFFFFF;stroke:#EE851E;stroke-miterlimit:10;}
	.st15{fill:#EE851E;}
	.st16{fill:#ED8523;}
	.st17{stroke:#EE851E;stroke-miterlimit:10;}
	.st18{fill:none;stroke:#79C8DC;stroke-linejoin:round;stroke-miterlimit:10;}
	.st19{fill:none;stroke:#79C8DC;stroke-width:0;stroke-linecap:round;stroke-linejoin:round;}
	.st20{fill:#79C8DC;}
	.st21{fill:none;stroke:#ED8523;stroke-width:5;stroke-miterlimit:10;}
	.st22{clip-path:url(#SVGID_38_);fill:#FA9D1D;stroke:#FA9D1D;stroke-linecap:round;stroke-linejoin:round;stroke-miterlimit:10;}
	.st23{clip-path:url(#SVGID_40_);fill:#FA9D1D;stroke:#FA9D1D;stroke-linecap:round;stroke-linejoin:round;stroke-miterlimit:10;}
	.st24{fill:#FA9D1D;}
	.st25{fill:#FA9D1D;stroke:#FA9D1D;stroke-width:6;stroke-linecap:round;stroke-linejoin:round;stroke-miterlimit:10;}
	.st26{clip-path:url(#SVGID_42_);fill:#86CBDD;stroke:#79C8DC;stroke-miterlimit:10;}
	.st27{clip-path:url(#SVGID_44_);fill:#86CBDD;stroke:#79C8DC;stroke-miterlimit:10;}
	.st28{clip-path:url(#SVGID_46_);fill:#F59D25;stroke:#FA9D1D;stroke-linecap:round;stroke-linejoin:round;stroke-miterlimit:10;}
	.st29{clip-path:url(#SVGID_48_);fill:#F59D25;stroke:#FA9D1D;stroke-linecap:round;stroke-linejoin:round;stroke-miterlimit:10;}
	.st30{clip-path:url(#SVGID_50_);}
	.st31{fill:#FFFFFF;}
	.st32{clip-path:url(#SVGID_52_);}
	.st33{clip-path:url(#SVGID_54_);fill:#86CBDD;stroke:#79C8DC;stroke-miterlimit:10;}
	.st34{clip-path:url(#SVGID_56_);fill:#86CBDD;stroke:#79C8DC;stroke-miterlimit:10;}
	.st35{clip-path:url(#SVGID_58_);fill:#FFFFFF;stroke:#79C8DC;stroke-miterlimit:10;}
	.st36{clip-path:url(#SVGID_60_);fill:#FFFFFF;stroke:#79C8DC;stroke-miterlimit:10;}
	.st37{clip-path:url(#SVGID_62_);fill:#F59D25;stroke:#FA9D1D;stroke-linecap:round;stroke-linejoin:round;stroke-miterlimit:10;}
	.st38{clip-path:url(#SVGID_64_);fill:#F59D25;stroke:#FA9D1D;stroke-linecap:round;stroke-linejoin:round;stroke-miterlimit:10;}
	.st39{clip-path:url(#SVGID_66_);}
	.st40{clip-path:url(#SVGID_68_);}
	.st41{clip-path:url(#SVGID_70_);fill:#F59D25;stroke:#FA9D1D;stroke-linecap:round;stroke-linejoin:round;stroke-miterlimit:10;}
	.st42{clip-path:url(#SVGID_72_);fill:#F59D25;stroke:#FA9D1D;stroke-linecap:round;stroke-linejoin:round;stroke-miterlimit:10;}
	.st43{clip-path:url(#SVGID_74_);}
	.st44{clip-path:url(#SVGID_76_);}
	.st45{clip-path:url(#SVGID_78_);fill:#86CBDD;stroke:#79C8DC;stroke-miterlimit:10;}
	.st46{clip-path:url(#SVGID_80_);fill:#86CBDD;stroke:#79C8DC;stroke-miterlimit:10;}
	.st47{clip-path:url(#SVGID_82_);fill:#FFFFFF;stroke:#79C8DC;stroke-miterlimit:10;}
	.st48{clip-path:url(#SVGID_84_);fill:#FFFFFF;stroke:#79C8DC;stroke-miterlimit:10;}
	.st49{clip-path:url(#SVGID_86_);fill:#F59D25;stroke:#FA9D1D;stroke-linecap:round;stroke-linejoin:round;stroke-miterlimit:10;}
	.st50{clip-path:url(#SVGID_88_);fill:#F59D25;stroke:#FA9D1D;stroke-linecap:round;stroke-linejoin:round;stroke-miterlimit:10;}
	.st51{fill:#FFFFFF;stroke:#79C8DC;stroke-miterlimit:10;}
	.st52{clip-path:url(#SVGID_90_);}
	.st53{clip-path:url(#SVGID_92_);}
	.st54{clip-path:url(#SVGID_94_);fill:#F59D25;stroke:#FA9D1D;stroke-linecap:round;stroke-linejoin:round;stroke-miterlimit:10;}
	.st55{clip-path:url(#SVGID_96_);fill:#F59D25;stroke:#FA9D1D;stroke-linecap:round;stroke-linejoin:round;stroke-miterlimit:10;}
	.st56{clip-path:url(#SVGID_98_);}
	.st57{clip-path:url(#SVGID_100_);}
	.st58{fill:url(#SVGID_101_);}
	.st59{fill:url(#SVGID_102_);}
	.st60{clip-path:url(#SVGID_104_);fill:url(#SVGID_105_);}
	.st61{clip-path:url(#SVGID_107_);fill:url(#SVGID_108_);}
	.st62{clip-path:url(#SVGID_110_);fill:url(#SVGID_111_);}
	.st63{clip-path:url(#SVGID_110_);fill:url(#SVGID_112_);}
	.st64{clip-path:url(#SVGID_114_);fill:url(#SVGID_115_);}
	.st65{clip-path:url(#SVGID_114_);fill:url(#SVGID_116_);}
	.st66{fill:url(#SVGID_117_);}
	.st67{fill:url(#SVGID_118_);stroke:#FFFFFF;stroke-miterlimit:10;}
	.st68{fill:url(#SVGID_119_);}
	.st69{fill:url(#SVGID_120_);stroke:#FFFFFF;stroke-miterlimit:10;}
	.st70{fill:url(#SVGID_121_);}
	.st71{fill:url(#SVGID_122_);}
	.st72{clip-path:url(#SVGID_124_);fill:url(#SVGID_125_);}
	.st73{clip-path:url(#SVGID_127_);fill:url(#SVGID_128_);}
	.st74{clip-path:url(#SVGID_130_);fill:url(#SVGID_131_);}
	.st75{clip-path:url(#SVGID_130_);fill:url(#SVGID_132_);}
	.st76{clip-path:url(#SVGID_134_);fill:url(#SVGID_135_);}
	.st77{clip-path:url(#SVGID_134_);fill:url(#SVGID_136_);}
	.st78{fill:url(#SVGID_137_);}
	.st79{fill:url(#SVGID_138_);stroke:#FFFFFF;stroke-miterlimit:10;}
	.st80{fill:url(#SVGID_139_);}
	.st81{fill:url(#SVGID_140_);stroke:#FFFFFF;stroke-miterlimit:10;}
	.st82{fill:url(#SVGID_141_);}
	.st83{fill:url(#SVGID_142_);}
	.st84{fill:url(#SVGID_143_);}
	.st85{fill:url(#SVGID_144_);}
	.st86{clip-path:url(#SVGID_146_);fill:url(#SVGID_147_);}
	.st87{clip-path:url(#SVGID_149_);fill:url(#SVGID_150_);}
	.st88{clip-path:url(#SVGID_152_);fill:url(#SVGID_153_);}
	.st89{clip-path:url(#SVGID_152_);fill:url(#SVGID_154_);}
	.st90{clip-path:url(#SVGID_156_);fill:url(#SVGID_157_);}
	.st91{clip-path:url(#SVGID_156_);fill:url(#SVGID_158_);}
	.st92{fill:url(#SVGID_159_);}
	.st93{fill:url(#SVGID_160_);}
	.st94{fill:url(#SVGID_161_);}
	.st95{fill:url(#SVGID_162_);}
	.st96{clip-path:url(#SVGID_164_);fill:url(#SVGID_165_);}
	.st97{clip-path:url(#SVGID_167_);fill:url(#SVGID_168_);}
	.st98{clip-path:url(#SVGID_170_);fill:url(#SVGID_171_);}
	.st99{clip-path:url(#SVGID_170_);fill:url(#SVGID_172_);}
	.st100{clip-path:url(#SVGID_174_);fill:url(#SVGID_175_);}
	.st101{clip-path:url(#SVGID_174_);fill:url(#SVGID_176_);}
	.st102{fill:url(#SVGID_177_);}
	.st103{fill:url(#SVGID_178_);}
	.st104{clip-path:url(#SVGID_180_);fill:url(#SVGID_181_);}
	.st105{clip-path:url(#SVGID_183_);fill:url(#SVGID_184_);}
	.st106{fill:#F4952B;}
	.st107{clip-path:url(#SVGID_186_);fill:url(#SVGID_187_);}
	.st108{clip-path:url(#SVGID_186_);fill:url(#SVGID_188_);}
	.st109{clip-path:url(#SVGID_190_);fill:url(#SVGID_191_);}
	.st110{clip-path:url(#SVGID_190_);fill:url(#SVGID_192_);}
	.st111{fill:url(#SVGID_193_);}
	.st112{fill:url(#SVGID_194_);}
	.st113{clip-path:url(#SVGID_196_);fill:url(#SVGID_197_);}
	.st114{clip-path:url(#SVGID_199_);fill:url(#SVGID_200_);}
	.st115{clip-path:url(#SVGID_202_);fill:url(#SVGID_203_);}
	.st116{clip-path:url(#SVGID_202_);fill:url(#SVGID_204_);}
	.st117{clip-path:url(#SVGID_206_);fill:url(#SVGID_207_);}
	.st118{clip-path:url(#SVGID_206_);fill:url(#SVGID_208_);}
	.st119{fill:url(#SVGID_209_);}
	.st120{fill:url(#SVGID_210_);}
	.st121{clip-path:url(#SVGID_212_);fill:url(#SVGID_213_);}
	.st122{clip-path:url(#SVGID_215_);fill:url(#SVGID_216_);}
	.st123{clip-path:url(#SVGID_218_);fill:url(#SVGID_219_);}
	.st124{clip-path:url(#SVGID_218_);fill:url(#SVGID_220_);}
	.st125{clip-path:url(#SVGID_222_);fill:url(#SVGID_223_);}
	.st126{clip-path:url(#SVGID_222_);fill:url(#SVGID_224_);}
	.st127{fill:url(#SVGID_225_);}
	.st128{fill:url(#SVGID_226_);}
	.st129{clip-path:url(#SVGID_228_);fill:url(#SVGID_229_);}
	.st130{clip-path:url(#SVGID_231_);fill:url(#SVGID_232_);}
	.st131{clip-path:url(#SVGID_234_);fill:url(#SVGID_235_);}
	.st132{clip-path:url(#SVGID_234_);fill:url(#SVGID_236_);}
	.st133{clip-path:url(#SVGID_238_);fill:url(#SVGID_239_);}
	.st134{clip-path:url(#SVGID_238_);fill:url(#SVGID_240_);}
	.st135{fill:url(#SVGID_241_);}
	.st136{fill:url(#SVGID_242_);}
	.st137{fill:url(#SVGID_243_);}
	.st138{fill:url(#SVGID_244_);}
	.st139{clip-path:url(#SVGID_246_);fill:url(#SVGID_247_);}
	.st140{clip-path:url(#SVGID_249_);fill:url(#SVGID_250_);}
	.st141{clip-path:url(#SVGID_252_);fill:url(#SVGID_253_);}
	.st142{clip-path:url(#SVGID_252_);fill:url(#SVGID_254_);}
	.st143{clip-path:url(#SVGID_256_);fill:url(#SVGID_257_);}
	.st144{clip-path:url(#SVGID_256_);fill:url(#SVGID_258_);}
	.st145{fill:url(#SVGID_259_);}
	.st146{fill:url(#SVGID_260_);}
	.st147{fill:url(#SVGID_261_);}
	.st148{fill:url(#SVGID_262_);}
	.st149{clip-path:url(#SVGID_264_);fill:url(#SVGID_265_);}
	.st150{clip-path:url(#SVGID_267_);fill:url(#SVGID_268_);}
	.st151{clip-path:url(#SVGID_270_);fill:url(#SVGID_271_);}
	.st152{clip-path:url(#SVGID_270_);fill:url(#SVGID_272_);}
	.st153{clip-path:url(#SVGID_274_);fill:url(#SVGID_275_);}
	.st154{clip-path:url(#SVGID_274_);fill:url(#SVGID_276_);}
</style>
<g id="Calque_1">
</g>
<g id="Calque_5">
</g>
<g id="Calque_4">
</g>
<g id="Calque_2">
</g>
<g id="Calque_3">
</g>
<g id="Calque_6">
</g>
<g id="Calque_7">
</g>
<g id="Calque_8">
	<g>
		<linearGradient id="SVGID_2_" gradientUnits="userSpaceOnUse" x1="254.9052" y1="454.7252" x2="241.5667" y2="483.1075">
			<stop offset="0" style="stop-color:#F49224" />
			<stop offset="0.9754" style="stop-color:#E97D21" />
			<stop offset="1" style="stop-color:#E87D21" />
		</linearGradient>
		<path style="fill:url(#SVGID_2_);" d="M242.4,483.52c-5.87-11.26,2.28-25.17,13.33-28.13c2.88-0.77,5.67,2.45,3.82,3.06    c-11.39,3.77-16.64,14.58-12.57,25.32C247.49,485.08,243.24,485.12,242.4,483.52z" />
		<linearGradient id="SVGID_4_" gradientUnits="userSpaceOnUse" x1="331.88" y1="454.7252" x2="318.5415" y2="483.1075">
			<stop offset="0" style="stop-color:#F49224" />
			<stop offset="0.9754" style="stop-color:#E97D21" />
			<stop offset="1" style="stop-color:#E87D21" />
		</linearGradient>
		<path style="fill:url(#SVGID_4_);" d="M319.38,483.52c-5.87-11.26,2.28-25.17,13.33-28.13c2.88-0.77,5.67,2.45,3.82,3.06    c-11.39,3.77-16.64,14.58-12.57,25.32C324.47,485.08,320.22,485.12,319.38,483.52z" />
		<linearGradient id="SVGID_6_" gradientUnits="userSpaceOnUse" x1="422.2784" y1="468.123" x2="422.2784" y2="418.3718">
			<stop offset="0" style="stop-color:#F69625" />
			<stop offset="0.3734" style="stop-color:#F39023" />
			<stop offset="0.8343" style="stop-color:#E97F1F" />
			<stop offset="1" style="stop-color:#E4771C" />
		</linearGradient>
		<path style="fill:url(#SVGID_6_);" d="M417.1,419.59c3.47-1.92,6.88-3.97,10.09-6.21c0,7.59,3.8,25.91-3.37,28.72    c6.57,4.59,7.33,10.78,4.12,17.74c-0.4,0.79-0.24,2.19-1.45,0.99c-0.91-0.92-1.07-0.95-1.41-1.54c-0.16,4.8-4.1,7.78-6.26,11.58    c-4.02-8.57-7.41-22.47,1.97-28.9c-8.02-4.13-3.8-14.34-3.8-22.13C416.99,419.58,417.1,419.59,417.1,419.59z" />
		<radialGradient id="SVGID_8_" cx="297.64" cy="477.1151" r="81.3037" gradientUnits="userSpaceOnUse">
			<stop offset="0" style="stop-color:#F69625" />
			<stop offset="0.321" style="stop-color:#F49224" />
			<stop offset="0.6462" style="stop-color:#ED8421" />
			<stop offset="0.9723" style="stop-color:#E16E1B" />
			<stop offset="1" style="stop-color:#E06C1A" />
		</radialGradient>
		<path style="fill:url(#SVGID_8_);" d="M355.82,450.14c7.13,6.42,10.81,14.63,11.47,24.67c0.71,10.66-2.53,19.68-9.1,27.11    c-5.05,5.72-11.38,8.95-18.57,9.86c-10.75,1.36-19.62-2.85-27.02-11.49c-3.12-3.64-5.16-7.91-6.62-12.64c-1-3.26-3.7-4-6.29-4.47    c-2.01-0.37-4.11-0.23-6.1,0.51c-2.17,0.81-3.74,2.15-4.59,4.8c-3.59,11.17-10.43,18.56-20.68,21.99    c-11.79,3.94-22.1,0.68-30.97-8.32c-5.63-5.72-8.66-13.18-9.35-21.81c-1.25-15.76,6.46-28.89,17.87-34.73    c10.72-5.49,21.16-4.41,31.04,2.77c1.38,1,2.72,1.53,4.34,1.4c1.27-0.11,2.56-0.1,3.83,0c2.53,0.2,4.63-0.28,6.74-2.34    c3.35-3.28,8.95-2.84,12.31,0.58c1.32,1.35,2.65,1.98,4.37,1.75c0.28-0.04,0.57-0.03,0.85,0c4.34,0.45,8.06-0.83,11.98-3.32    c8.19-5.18,17.02-5.62,25.94-1.81C350.38,445.95,353.21,447.62,355.82,450.14z M237.22,486.02c4.09,13.78,19.3,21.2,31.08,15.35    c11.61-5.77,17.29-19.78,13.37-32.38c-5.74-18.45-25.83-24.01-38.6-10.72C236.41,465.2,233.69,476.57,237.22,486.02z     M312.73,473.24c-0.48,2.59-0.43,5.16-0.04,7.79c2.13,14.23,13.79,24.52,26.85,22.08c15.87-2.96,25.06-21.66,17.21-38.21    c-6.18-13.02-20.93-18.02-32.51-10.36C317.98,458.68,314.2,464.85,312.73,473.24z" />
		<g>
			<g>
				<defs>
					<rect id="SVGID_263_" x="154.46" y="324.78" width="143.18" height="133.12" />
				</defs>
				<clipPath id="SVGID_10_">
					<use xlink:href="#SVGID_263_" style="overflow:visible;" />
				</clipPath>
				
					<linearGradient id="SVGID_12_" gradientUnits="userSpaceOnUse" x1="-1139.6654" y1="231.516" x2="-1139.6654" y2="338.3702" gradientTransform="matrix(1 0 0 1 1437.5854 91.8638)">
					<stop offset="0" style="stop-color:#F59D25" />
					<stop offset="0.3288" style="stop-color:#F49924" />
					<stop offset="0.5829" style="stop-color:#EF8F21" />
					<stop offset="0.8113" style="stop-color:#E77E1B" />
					<stop offset="1" style="stop-color:#DE6915" />
				</linearGradient>
				<path style="clip-path:url(#SVGID_10_);fill:url(#SVGID_12_);" d="M302.72,429.7c-0.03,0-0.07-0.01-0.1-0.01      c-35.99,0.01-65.68,7.92-93.44,27.67c-0.19,0.14-0.78,0.54-0.78,0.54v-34.45v-0.44c19.25-27.58,56.75-34.49,92.45-34.62      c0.53,0,0.93,0.5,0.81,1.02l-1.34,5.85c-0.09,0.37-0.42,0.64-0.8,0.64c-36.07,0.09-71.49,7.92-91.05,35.73      c-0.1,0.14-0.15,0.31-0.15,0.48l-0.02,7.26v1.5c-25.06-16.29-51.87-33.72-52.71-34.27c-1.37-0.71-1.51-2.61-0.27-3.52      c0,0,119.15-66.04,139.99-77.63c1.62-0.9,3.59-0.89,5.2,0.01c20.37,11.41,120.24,66.42,140.04,77.55      c1.23,0.92,1.07,2.8-0.29,3.5c0,0-33.18,21.42-53.65,34.63l2-1.25L302.72,429.7z" />
			</g>
			<g>
				<defs>
					<rect id="SVGID_266_" x="297.64" y="324.78" width="143.18" height="133.12" />
				</defs>
				<clipPath id="SVGID_14_">
					<use xlink:href="#SVGID_266_" style="overflow:visible;" />
				</clipPath>
				
					<linearGradient id="SVGID_16_" gradientUnits="userSpaceOnUse" x1="-1139.6654" y1="231.516" x2="-1139.6654" y2="338.3702" gradientTransform="matrix(-1 0 0 1 -842.3064 91.8635)">
					<stop offset="0" style="stop-color:#F59D25" />
					<stop offset="0.3288" style="stop-color:#F49924" />
					<stop offset="0.5829" style="stop-color:#EF8F21" />
					<stop offset="0.8113" style="stop-color:#E77E1B" />
					<stop offset="1" style="stop-color:#DE6915" />
				</linearGradient>
				<path style="clip-path:url(#SVGID_14_);fill:url(#SVGID_16_);" d="M292.56,429.7c0.03,0,0.07-0.01,0.1-0.01      c35.99,0.01,65.68,7.92,93.44,27.67c0.19,0.14,0.78,0.54,0.78,0.54v-34.45v-0.44c-19.25-27.58-56.75-34.49-92.45-34.62      c-0.53,0-0.93,0.5-0.81,1.02l1.34,5.85c0.09,0.37,0.42,0.64,0.8,0.64c36.07,0.09,71.49,7.92,91.05,35.73      c0.1,0.14,0.15,0.31,0.15,0.48l0.02,7.26v1.5c25.06-16.29,51.87-33.72,52.71-34.27c1.37-0.71,1.51-2.61,0.27-3.52      c0,0-119.15-66.05-139.99-77.63c-1.62-0.9-3.59-0.89-5.2,0.01c-20.37,11.41-120.24,66.42-140.04,77.55      c-1.23,0.92-1.07,2.8,0.29,3.5c0,0,33.18,21.42,53.65,34.63l-2-1.25L292.56,429.7z" />
			</g>
		</g>
		<g>
			<g>
				<defs>
					<rect id="SVGID_269_" x="207.41" y="389.76" width="90.12" height="68.46" />
				</defs>
				<clipPath id="SVGID_18_">
					<use xlink:href="#SVGID_269_" style="overflow:visible;" />
				</clipPath>
				
					<linearGradient id="SVGID_20_" gradientUnits="userSpaceOnUse" x1="-1139.8416" y1="350.8116" x2="-1139.8416" y2="295.0792" gradientTransform="matrix(1.0099 0 0 1.0099 1448.4528 90.2985)">
					<stop offset="0" style="stop-color:#F9951D" />
					<stop offset="1" style="stop-color:#DE6918" />
				</linearGradient>
				<path style="clip-path:url(#SVGID_18_);fill:url(#SVGID_20_);" d="M302.61,431.47c-35.46,0-61.93,2.82-92.32,26.47      c-0.66,0.51-2.73,0.5-2.71-1.89c0-9.62-0.13-22.12-0.17-29.94c0-0.75,0.08-1.49,0.28-2.21c0.09-0.33,0.27-0.63,0.5-0.89      c16.45-18.08,58.01-33.26,93.63-33.26" />
			</g>
			<g>
				<defs>
					<rect id="SVGID_273_" x="297.53" y="389.76" width="90.12" height="68.46" />
				</defs>
				<clipPath id="SVGID_22_">
					<use xlink:href="#SVGID_273_" style="overflow:visible;" />
				</clipPath>
				
					<linearGradient id="SVGID_24_" gradientUnits="userSpaceOnUse" x1="-1139.8416" y1="350.8116" x2="-1139.8416" y2="295.0792" gradientTransform="matrix(-1.0099 0 0 1.0099 -853.3964 90.2982)">
					<stop offset="0" style="stop-color:#F9951D" />
					<stop offset="1" style="stop-color:#DE6918" />
				</linearGradient>
				<path style="clip-path:url(#SVGID_22_);fill:url(#SVGID_24_);" d="M292.45,431.47c35.46,0,61.93,2.82,92.32,26.47      c0.66,0.51,2.73,0.5,2.71-1.89c0-9.62,0.13-22.12,0.17-29.94c0-0.75-0.08-1.49-0.28-2.21c-0.09-0.33-0.27-0.63-0.5-0.89      c-16.45-18.08-58.01-33.26-93.63-33.26" />
			</g>
		</g>
	</g>
</g>
</svg>