<?xml version="1.0" encoding="UTF-8"?>
<svg xmlns="http://www.w3.org/2000/svg" xmlns:xlink="http://www.w3.org/1999/xlink" width="1000px" height="1415px" viewBox="0 0 1000 1415" version="1.1">
<defs>
<linearGradient id="linear0" gradientUnits="userSpaceOnUse" x1="254.9052" y1="454.7252" x2="241.5667" y2="483.1075" gradientTransform="matrix(1.680672,0,0,1.680523,0,0)">
<stop offset="0" style="stop-color:rgb(95.686275%,57.254902%,14.117647%);stop-opacity:1;"/>
<stop offset="0.9754" style="stop-color:rgb(91.372549%,49.019608%,12.941176%);stop-opacity:1;"/>
<stop offset="1" style="stop-color:rgb(90.980392%,49.019608%,12.941176%);stop-opacity:1;"/>
</linearGradient>
<linearGradient id="linear1" gradientUnits="userSpaceOnUse" x1="331.88" y1="454.7252" x2="318.5415" y2="483.1075" gradientTransform="matrix(1.680672,0,0,1.680523,0,0)">
<stop offset="0" style="stop-color:rgb(95.686275%,57.254902%,14.117647%);stop-opacity:1;"/>
<stop offset="0.9754" style="stop-color:rgb(91.372549%,49.019608%,12.941176%);stop-opacity:1;"/>
<stop offset="1" style="stop-color:rgb(90.980392%,49.019608%,12.941176%);stop-opacity:1;"/>
</linearGradient>
<linearGradient id="linear2" gradientUnits="userSpaceOnUse" x1="422.2784" y1="468.123" x2="422.2784" y2="418.3718" gradientTransform="matrix(1.680672,0,0,1.680523,0,0)">
<stop offset="0" style="stop-color:rgb(96.470588%,58.823529%,14.509804%);stop-opacity:1;"/>
<stop offset="0.3734" style="stop-color:rgb(95.294118%,56.470588%,13.72549%);stop-opacity:1;"/>
<stop offset="0.8343" style="stop-color:rgb(91.372549%,49.803922%,12.156863%);stop-opacity:1;"/>
<stop offset="1" style="stop-color:rgb(89.411765%,46.666667%,10.980392%);stop-opacity:1;"/>
</linearGradient>
<radialGradient id="radial0" gradientUnits="userSpaceOnUse" cx="297.64" cy="477.1151" fx="297.64" fy="477.1151" r="81.3037" gradientTransform="matrix(1.680672,0,0,1.680523,0,0)">
<stop offset="0" style="stop-color:rgb(96.470588%,58.823529%,14.509804%);stop-opacity:1;"/>
<stop offset="0.321" style="stop-color:rgb(95.686275%,57.254902%,14.117647%);stop-opacity:1;"/>
<stop offset="0.6462" style="stop-color:rgb(92.941176%,51.764706%,12.941176%);stop-opacity:1;"/>
<stop offset="0.9723" style="stop-color:rgb(88.235294%,43.137255%,10.588235%);stop-opacity:1;"/>
<stop offset="1" style="stop-color:rgb(87.843137%,42.352941%,10.196078%);stop-opacity:1;"/>
</radialGradient>
<clipPath id="clip1">
  <path d="M 259.597656 545.800781 L 500.234375 545.800781 L 500.234375 769.511719 L 259.597656 769.511719 Z M 259.597656 545.800781 "/>
</clipPath>
<linearGradient id="linear3" gradientUnits="userSpaceOnUse" x1="-1139.6654" y1="231.516" x2="-1139.6654" y2="338.3702" gradientTransform="matrix(1.680672,0,0,1.680523,2416.109916,154.379189)">
<stop offset="0" style="stop-color:rgb(96.078431%,61.568627%,14.509804%);stop-opacity:1;"/>
<stop offset="0.3288" style="stop-color:rgb(95.686275%,60%,14.117647%);stop-opacity:1;"/>
<stop offset="0.5829" style="stop-color:rgb(93.72549%,56.078431%,12.941176%);stop-opacity:1;"/>
<stop offset="0.8113" style="stop-color:rgb(90.588235%,49.411765%,10.588235%);stop-opacity:1;"/>
<stop offset="1" style="stop-color:rgb(87.058824%,41.176471%,8.235294%);stop-opacity:1;"/>
</linearGradient>
<clipPath id="clip2">
  <path d="M 500.234375 545.800781 L 740.875 545.800781 L 740.875 769.511719 L 500.234375 769.511719 Z M 500.234375 545.800781 "/>
</clipPath>
<linearGradient id="linear4" gradientUnits="userSpaceOnUse" x1="-1139.6654" y1="231.516" x2="-1139.6654" y2="338.3702" gradientTransform="matrix(-1.680672,0,0,1.680523,-1415.641008,154.378685)">
<stop offset="0" style="stop-color:rgb(96.078431%,61.568627%,14.509804%);stop-opacity:1;"/>
<stop offset="0.3288" style="stop-color:rgb(95.686275%,60%,14.117647%);stop-opacity:1;"/>
<stop offset="0.5829" style="stop-color:rgb(93.72549%,56.078431%,12.941176%);stop-opacity:1;"/>
<stop offset="0.8113" style="stop-color:rgb(90.588235%,49.411765%,10.588235%);stop-opacity:1;"/>
<stop offset="1" style="stop-color:rgb(87.058824%,41.176471%,8.235294%);stop-opacity:1;"/>
</linearGradient>
<clipPath id="clip3">
  <path d="M 348.589844 655 L 500.050781 655 L 500.050781 770.050781 L 348.589844 770.050781 Z M 348.589844 655 "/>
</clipPath>
<linearGradient id="linear5" gradientUnits="userSpaceOnUse" x1="-1139.8416" y1="350.8116" x2="-1139.8416" y2="295.0792" gradientTransform="matrix(1.697311,0,0,1.69716,2434.374454,151.748667)">
<stop offset="0" style="stop-color:rgb(97.647059%,58.431373%,11.372549%);stop-opacity:1;"/>
<stop offset="1" style="stop-color:rgb(87.058824%,41.176471%,9.411765%);stop-opacity:1;"/>
</linearGradient>
<clipPath id="clip4">
  <path d="M 500.050781 655 L 651.511719 655 L 651.511719 770.050781 L 500.050781 770.050781 Z M 500.050781 655 "/>
</clipPath>
<linearGradient id="linear6" gradientUnits="userSpaceOnUse" x1="-1139.8416" y1="350.8116" x2="-1139.8416" y2="295.0792" gradientTransform="matrix(-1.697311,0,0,1.69716,-1434.279664,151.748163)">
<stop offset="0" style="stop-color:rgb(97.647059%,58.431373%,11.372549%);stop-opacity:1;"/>
<stop offset="1" style="stop-color:rgb(87.058824%,41.176471%,9.411765%);stop-opacity:1;"/>
</linearGradient>
</defs>
<g id="surface1">
<path style=" stroke:none;fill-rule:nonzero;fill:url(#linear0);" d="M 407.394531 812.566406 C 397.53125 793.644531 411.226562 770.265625 429.796875 765.292969 C 434.636719 764 439.328125 769.410156 436.21875 770.4375 C 417.074219 776.769531 408.253906 794.9375 415.09375 812.988281 C 415.949219 815.1875 408.808594 815.253906 407.394531 812.566406 Z M 407.394531 812.566406 "/>
<path style=" stroke:none;fill-rule:nonzero;fill:url(#linear1);" d="M 536.773438 812.566406 C 526.90625 793.644531 540.605469 770.265625 559.175781 765.292969 C 564.015625 764 568.707031 769.410156 565.597656 770.4375 C 546.453125 776.769531 537.628906 794.9375 544.46875 812.988281 C 545.328125 815.1875 538.183594 815.253906 536.773438 812.566406 Z M 536.773438 812.566406 "/>
<path style=" stroke:none;fill-rule:nonzero;fill:url(#linear2);" d="M 701.007812 705.128906 C 706.839844 701.902344 712.570312 698.457031 717.964844 694.695312 C 717.964844 707.449219 724.351562 738.238281 712.300781 742.960938 C 723.34375 750.671875 724.621094 761.074219 719.226562 772.773438 C 718.554688 774.097656 718.824219 776.453125 716.789062 774.433594 C 715.261719 772.890625 714.992188 772.839844 714.421875 771.847656 C 714.152344 779.914062 707.53125 784.921875 703.898438 791.308594 C 697.144531 776.90625 691.445312 753.546875 707.210938 742.742188 C 693.730469 735.800781 700.824219 718.640625 700.824219 705.550781 C 700.824219 705.113281 701.007812 705.128906 701.007812 705.128906 Z M 701.007812 705.128906 "/>
<path style=" stroke:none;fill-rule:nonzero;fill:url(#radial0);" d="M 598.015625 756.46875 C 610 767.257812 616.183594 781.054688 617.292969 797.929688 C 618.488281 815.84375 613.042969 831 602 843.488281 C 593.511719 853.101562 582.875 858.527344 570.789062 860.058594 C 552.722656 862.34375 537.816406 855.269531 525.378906 840.75 C 520.132812 834.632812 516.707031 827.457031 514.253906 819.507812 C 512.570312 814.027344 508.035156 812.785156 503.679688 811.996094 C 500.300781 811.375 496.773438 811.609375 493.429688 812.851562 C 489.78125 814.214844 487.144531 816.464844 485.714844 820.917969 C 479.679688 839.691406 468.183594 852.109375 450.957031 857.875 C 431.144531 864.496094 413.816406 859.015625 398.90625 843.890625 C 389.445312 834.277344 384.351562 821.742188 383.191406 807.238281 C 381.09375 780.753906 394.050781 758.6875 413.226562 748.875 C 431.242188 739.648438 448.789062 741.464844 465.394531 753.53125 C 467.714844 755.210938 469.964844 756.101562 472.6875 755.882812 C 474.824219 755.699219 476.992188 755.714844 479.125 755.882812 C 483.378906 756.21875 486.90625 755.410156 490.453125 751.949219 C 496.085938 746.4375 505.496094 747.175781 511.144531 752.925781 C 513.363281 755.191406 515.597656 756.253906 518.488281 755.867188 C 518.957031 755.796875 519.445312 755.816406 519.914062 755.867188 C 527.210938 756.621094 533.460938 754.46875 540.050781 750.285156 C 553.816406 741.582031 568.65625 740.839844 583.648438 747.246094 C 588.875 749.429688 593.628906 752.234375 598.015625 756.46875 Z M 398.6875 816.765625 C 405.5625 839.925781 431.125 852.394531 450.925781 842.5625 C 470.4375 832.867188 479.984375 809.324219 473.394531 788.148438 C 463.746094 757.144531 429.984375 747.800781 408.519531 770.132812 C 397.328125 781.777344 392.757812 800.886719 398.6875 816.765625 Z M 525.597656 795.289062 C 524.789062 799.644531 524.875 803.960938 525.53125 808.382812 C 529.109375 832.296875 548.707031 849.589844 570.65625 845.488281 C 597.328125 840.511719 612.773438 809.085938 599.578125 781.273438 C 589.191406 759.394531 564.402344 750.992188 544.941406 763.863281 C 534.421875 770.820312 528.066406 781.191406 525.597656 795.289062 Z M 525.597656 795.289062 "/>
<g clip-path="url(#clip1)" clip-rule="nonzero">
<path style=" stroke:none;fill-rule:nonzero;fill:url(#linear3);" d="M 508.773438 722.121094 C 508.722656 722.121094 508.65625 722.105469 508.605469 722.105469 C 448.117188 722.121094 398.21875 735.414062 351.5625 768.605469 C 351.242188 768.839844 350.253906 769.511719 350.253906 769.511719 L 350.253906 710.878906 C 382.605469 664.527344 445.628906 652.917969 505.628906 652.699219 C 506.519531 652.699219 507.191406 653.539062 506.992188 654.414062 L 504.738281 664.242188 C 504.589844 664.863281 504.035156 665.320312 503.394531 665.320312 C 442.773438 665.46875 383.242188 678.628906 350.371094 725.363281 C 350.203125 725.597656 350.117188 725.886719 350.117188 726.171875 L 350.085938 738.371094 L 350.085938 740.890625 C 307.964844 713.515625 262.90625 684.226562 261.496094 683.300781 C 259.191406 682.105469 258.957031 678.914062 261.042969 677.386719 C 261.042969 677.386719 461.292969 566.402344 496.320312 546.925781 C 499.042969 545.414062 502.351562 545.429688 505.058594 546.941406 C 539.292969 566.117188 707.144531 658.5625 740.421875 677.265625 C 742.488281 678.8125 742.21875 681.972656 739.933594 683.148438 C 739.933594 683.148438 684.167969 719.144531 649.765625 741.347656 L 653.125 739.246094 Z M 508.773438 722.121094 "/>
</g>
<g clip-path="url(#clip2)" clip-rule="nonzero">
<path style=" stroke:none;fill-rule:nonzero;fill:url(#linear4);" d="M 491.699219 722.121094 C 491.746094 722.121094 491.816406 722.105469 491.867188 722.105469 C 552.351562 722.121094 602.253906 735.414062 648.90625 768.605469 C 649.226562 768.839844 650.21875 769.511719 650.21875 769.511719 L 650.21875 710.878906 C 617.867188 664.527344 554.839844 652.917969 494.839844 652.699219 C 493.949219 652.699219 493.277344 653.539062 493.480469 654.414062 L 495.730469 664.242188 C 495.882812 664.863281 496.4375 665.320312 497.074219 665.320312 C 557.699219 665.46875 617.226562 678.628906 650.101562 725.363281 C 650.269531 725.597656 650.351562 725.886719 650.351562 726.171875 L 650.386719 738.371094 L 650.386719 740.890625 C 692.503906 713.515625 737.5625 684.226562 738.976562 683.300781 C 741.277344 682.105469 741.511719 678.914062 739.429688 677.386719 C 739.429688 677.386719 539.175781 566.386719 504.152344 546.925781 C 501.429688 545.414062 498.117188 545.429688 495.410156 546.941406 C 461.175781 566.117188 293.328125 658.5625 260.050781 677.265625 C 257.984375 678.8125 258.253906 681.972656 260.539062 683.148438 C 260.539062 683.148438 316.300781 719.144531 350.707031 741.347656 L 347.34375 739.246094 Z M 491.699219 722.121094 "/>
</g>
<g clip-path="url(#clip3)" clip-rule="nonzero">
<path style=" stroke:none;fill-rule:nonzero;fill:url(#linear5);" d="M 508.589844 725.09375 C 448.992188 725.09375 404.503906 729.835938 353.429688 769.578125 C 352.320312 770.4375 348.839844 770.417969 348.875 766.402344 C 348.875 750.234375 348.65625 729.230469 348.589844 716.085938 C 348.589844 714.828125 348.722656 713.582031 349.058594 712.375 C 349.210938 711.820312 349.511719 711.316406 349.898438 710.878906 C 377.546875 680.492188 447.394531 654.984375 507.261719 654.984375 "/>
</g>
<g clip-path="url(#clip4)" clip-rule="nonzero">
<path style=" stroke:none;fill-rule:nonzero;fill:url(#linear6);" d="M 491.511719 725.09375 C 551.109375 725.09375 595.597656 729.835938 646.671875 769.578125 C 647.78125 770.4375 651.261719 770.417969 651.226562 766.402344 C 651.226562 750.234375 651.445312 729.230469 651.511719 716.085938 C 651.511719 714.828125 651.378906 713.582031 651.042969 712.375 C 650.890625 711.820312 650.589844 711.316406 650.203125 710.878906 C 622.554688 680.492188 552.707031 654.984375 492.839844 654.984375 "/>
</g>
</g>
</svg>
